<?xml version="1.0" encoding="UTF-8"?>
<svg xmlns="http://www.w3.org/2000/svg" viewBox="0 0 4000 3000" width="4000" height="3000">
  <defs>
    <linearGradient id="bgGrad" x1="0%" y1="0%" x2="100%" y2="100%">
      <stop offset="0%" stop-color="#0a2550"/>
      <stop offset="100%" stop-color="#0e3a7a"/>
    </linearGradient>
    <linearGradient id="goldH" x1="0%" y1="0%" x2="100%" y2="0%">
      <stop offset="0%"   stop-color="#7d5a00"/>
      <stop offset="30%"  stop-color="#ffd700"/>
      <stop offset="50%"  stop-color="#ffe966"/>
      <stop offset="70%"  stop-color="#ffd700"/>
      <stop offset="100%" stop-color="#7d5a00"/>
    </linearGradient>
    <linearGradient id="goldV" x1="0%" y1="0%" x2="0%" y2="100%">
      <stop offset="0%"   stop-color="#7d5a00"/>
      <stop offset="50%"  stop-color="#ffd700"/>
      <stop offset="100%" stop-color="#7d5a00"/>
    </linearGradient>
    <radialGradient id="ballGlow" cx="50%" cy="50%" r="50%">
      <stop offset="0%"   stop-color="#ffd700" stop-opacity="0.18"/>
      <stop offset="100%" stop-color="#ffd700" stop-opacity="0"/>
    </radialGradient>
  </defs>

  <!-- Background -->
  <rect width="4000" height="3000" fill="url(#bgGrad)"/>

  <!-- Diagonal stripe pattern -->
  <g opacity="0.04" stroke="#ffffff" stroke-width="40">
    <line x1="-200" y1="0" x2="800"  y2="3000"/>
    <line x1="200"  y1="0" x2="1200" y2="3000"/>
    <line x1="600"  y1="0" x2="1600" y2="3000"/>
    <line x1="1000" y1="0" x2="2000" y2="3000"/>
    <line x1="1400" y1="0" x2="2400" y2="3000"/>
    <line x1="1800" y1="0" x2="2800" y2="3000"/>
    <line x1="2200" y1="0" x2="3200" y2="3000"/>
    <line x1="2600" y1="0" x2="3600" y2="3000"/>
    <line x1="3000" y1="0" x2="4000" y2="3000"/>
    <line x1="3400" y1="0" x2="4400" y2="3000"/>
  </g>

  <!-- Top & bottom gold bars -->
  <rect x="0" y="0"    width="4000" height="110" fill="url(#goldH)"/>
  <rect x="0" y="2890" width="4000" height="110" fill="url(#goldH)"/>

  <!-- Side vertical gold lines -->
  <rect x="70"   y="110" width="8" height="2780" fill="url(#goldV)" opacity="0.6"/>
  <rect x="3922" y="110" width="8" height="2780" fill="url(#goldV)" opacity="0.6"/>
  <rect x="95"   y="110" width="3" height="2780" fill="#ffd700" opacity="0.2"/>
  <rect x="3902" y="110" width="3" height="2780" fill="#ffd700" opacity="0.2"/>

  <!-- Pickleball icon — LEFT decorative -->
  <g transform="translate(480,1500)" opacity="0.17">
    <circle r="340" fill="url(#ballGlow)" stroke="#ffd700" stroke-width="14"/>
    <path d="M-340,0 Q-170,-280 0,-320 Q170,-280 340,0" fill="none" stroke="#ffd700" stroke-width="10"/>
    <path d="M-340,0 Q-170,280 0,320 Q170,280 340,0"   fill="none" stroke="#ffd700" stroke-width="10"/>
    <circle cx="-200" cy="-160" r="26" fill="#ffd700"/>
    <circle cx="-100" cy="-185" r="26" fill="#ffd700"/>
    <circle cx="0"    cy="-195" r="26" fill="#ffd700"/>
    <circle cx="100"  cy="-185" r="26" fill="#ffd700"/>
    <circle cx="200"  cy="-160" r="26" fill="#ffd700"/>
    <circle cx="-240" cy="-50"  r="26" fill="#ffd700"/>
    <circle cx="-130" cy="-60"  r="26" fill="#ffd700"/>
    <circle cx="0"    cy="-65"  r="26" fill="#ffd700"/>
    <circle cx="130"  cy="-60"  r="26" fill="#ffd700"/>
    <circle cx="240"  cy="-50"  r="26" fill="#ffd700"/>
    <circle cx="-240" cy="70"   r="26" fill="#ffd700"/>
    <circle cx="-130" cy="60"   r="26" fill="#ffd700"/>
    <circle cx="0"    cy="55"   r="26" fill="#ffd700"/>
    <circle cx="130"  cy="60"   r="26" fill="#ffd700"/>
    <circle cx="240"  cy="70"   r="26" fill="#ffd700"/>
    <circle cx="-200" cy="180"  r="26" fill="#ffd700"/>
    <circle cx="-100" cy="195"  r="26" fill="#ffd700"/>
    <circle cx="0"    cy="200"  r="26" fill="#ffd700"/>
    <circle cx="100"  cy="195"  r="26" fill="#ffd700"/>
    <circle cx="200"  cy="180"  r="26" fill="#ffd700"/>
  </g>

  <!-- Pickleball icon — RIGHT decorative -->
  <g transform="translate(3520,1500)" opacity="0.17">
    <circle r="340" fill="url(#ballGlow)" stroke="#ffd700" stroke-width="14"/>
    <path d="M-340,0 Q-170,-280 0,-320 Q170,-280 340,0" fill="none" stroke="#ffd700" stroke-width="10"/>
    <path d="M-340,0 Q-170,280 0,320 Q170,280 340,0"   fill="none" stroke="#ffd700" stroke-width="10"/>
    <circle cx="-200" cy="-160" r="26" fill="#ffd700"/>
    <circle cx="-100" cy="-185" r="26" fill="#ffd700"/>
    <circle cx="0"    cy="-195" r="26" fill="#ffd700"/>
    <circle cx="100"  cy="-185" r="26" fill="#ffd700"/>
    <circle cx="200"  cy="-160" r="26" fill="#ffd700"/>
    <circle cx="-240" cy="-50"  r="26" fill="#ffd700"/>
    <circle cx="-130" cy="-60"  r="26" fill="#ffd700"/>
    <circle cx="0"    cy="-65"  r="26" fill="#ffd700"/>
    <circle cx="130"  cy="-60"  r="26" fill="#ffd700"/>
    <circle cx="240"  cy="-50"  r="26" fill="#ffd700"/>
    <circle cx="-240" cy="70"   r="26" fill="#ffd700"/>
    <circle cx="-130" cy="60"   r="26" fill="#ffd700"/>
    <circle cx="0"    cy="55"   r="26" fill="#ffd700"/>
    <circle cx="130"  cy="60"   r="26" fill="#ffd700"/>
    <circle cx="240"  cy="70"   r="26" fill="#ffd700"/>
    <circle cx="-200" cy="180"  r="26" fill="#ffd700"/>
    <circle cx="-100" cy="195"  r="26" fill="#ffd700"/>
    <circle cx="0"    cy="200"  r="26" fill="#ffd700"/>
    <circle cx="100"  cy="195"  r="26" fill="#ffd700"/>
    <circle cx="200"  cy="180"  r="26" fill="#ffd700"/>
  </g>

  <!-- Small pickleball icon center-top -->
  <g transform="translate(2000,430)" opacity="0.9">
    <circle r="90" fill="#ffd700" opacity="0.15" stroke="#ffd700" stroke-width="6"/>
    <path d="M-90,0 Q-45,-74 0,-85 Q45,-74 90,0" fill="none" stroke="#ffd700" stroke-width="5" opacity="0.7"/>
    <path d="M-90,0 Q-45,74 0,85 Q45,74 90,0"   fill="none" stroke="#ffd700" stroke-width="5" opacity="0.7"/>
    <circle cx="-46" cy="-42" r="9" fill="#ffd700" opacity="0.9"/>
    <circle cx="0"   cy="-50" r="9" fill="#ffd700" opacity="0.9"/>
    <circle cx="46"  cy="-42" r="9" fill="#ffd700" opacity="0.9"/>
    <circle cx="-55" cy="0"   r="9" fill="#ffd700" opacity="0.9"/>
    <circle cx="0"   cy="0"   r="9" fill="#ffd700" opacity="0.9"/>
    <circle cx="55"  cy="0"   r="9" fill="#ffd700" opacity="0.9"/>
    <circle cx="-46" cy="42"  r="9" fill="#ffd700" opacity="0.9"/>
    <circle cx="0"   cy="50"  r="9" fill="#ffd700" opacity="0.9"/>
    <circle cx="46"  cy="42"  r="9" fill="#ffd700" opacity="0.9"/>
  </g>

  <!-- MAIN TITLE: GIẢI PICKLEBALL -->
  <text x="2000" y="800"
        text-anchor="middle"
        font-family="'Arial Black', Arial, sans-serif"
        font-size="240" font-weight="900"
        letter-spacing="16"
        fill="url(#goldH)">GI&#7842;I PICKLEBALL</text>

  <!-- SUB-TITLE: GIAO LƯU -->
  <text x="2000" y="1050"
        text-anchor="middle"
        font-family="'Arial Black', Arial, sans-serif"
        font-size="210" font-weight="900"
        letter-spacing="44"
        fill="#ffffff">GIAO L&#431;U</text>

  <!-- Gold divider -->
  <rect x="300" y="1120" width="3400" height="7" fill="url(#goldH)" rx="3"/>
  <rect x="600" y="1136" width="2800" height="3" fill="#ffd700" opacity="0.25" rx="2"/>

  <!-- ORGANIZATION NAME: HĐH QUỲ HỢP KHU VỰC PHÍA BẮC -->
  <text x="2000" y="1310"
        text-anchor="middle"
        font-family="Arial, sans-serif"
        font-size="128" font-weight="bold"
        letter-spacing="5"
        fill="#ffffff">H&#272;H QU&#7922; H&#7906;P KHU V&#7920;C PH&#205;A B&#7854;C</text>

  <!-- Thin gold divider -->
  <rect x="700" y="1378" width="2600" height="4" fill="url(#goldH)" opacity="0.65" rx="2"/>

  <!-- DATE & LOCATION -->
  <text x="2000" y="1535"
        text-anchor="middle"
        font-family="Arial, sans-serif"
        font-size="108"
        fill="#ffd700">
    Th&#7913; B&#7842;y, 06/06/2026&#160;&#160;&#8226;&#160;&#160;H&#224; N&#7897;i
  </text>

  <!-- Bottom tagline -->
  <text x="2000" y="2710"
        text-anchor="middle"
        font-family="Arial, sans-serif"
        font-size="60"
        fill="#ffd700" opacity="0.42"
        letter-spacing="8">H&#227;y c&#249;ng nhau t&#7841;o n&#234;n nh&#7919;ng k&#7927; ni&#7879;m &#273;&#7865;p</text>

</svg>
